<svg width="79" height="36" viewBox="0 0 79 36" fill="none" xmlns="http://www.w3.org/2000/svg">
<g clip-path="url(#clip0_20_1104)">
<path d="M13.9206 21.2134L18.3843 15.7225H13.1581C11.2299 15.7225 9.33063 16.1623 7.95637 17.3753L7.55764 17.8592V0H2.25999C1.01509 0 0 1.01509 0 2.25999V35.5876H5.30678C6.54864 35.5876 7.55916 34.571 7.55916 33.32V24.455L11.86 29.7299L15.514 34.227C16.2521 35.1508 17.217 35.5845 18.2138 35.5845H25.6117L20.8269 29.7116L13.9221 21.2119L13.9206 21.2134ZM35.0899 27.2599V15.7225H27.5231V28.6828C27.5231 32.7721 30.3401 35.5876 34.4325 35.5876H40.2536C41.497 35.5876 42.5182 34.571 42.5182 33.32V29.2961H37.1186C36 29.2961 35.0899 28.3815 35.0899 27.2583M43.7798 11.6515V6.63234L43.3096 7.12238C43.2959 7.14217 41.8744 8.58643 37.7928 8.58643H35.0899V0H29.7831C28.5398 0 27.5231 1.01509 27.5231 2.25847V8.58643H18.5106C15.4684 8.58643 14.0347 9.82828 12.9405 11.1614L8.51338 16.6204C8.51338 16.6204 10.6044 14.6389 13.6771 14.6389H37.7943C40.4363 14.6389 42.2443 14.1215 43.1756 13.1034C43.8422 12.3744 43.7798 11.6561 43.7798 11.65" fill="white"/>
<path d="M54.0493 8.29881C54.0493 7.62614 54.3643 7.27002 54.9594 7.27002H58.7945V10.9895C58.7945 11.6622 58.4004 11.9802 57.8053 11.9802H54.0493V8.30033V8.29881ZM54.0874 15.6967C54.0874 15.024 54.3643 14.5492 55.0751 14.5492H58.7565V34.4142C58.7565 35.2071 58.3608 35.5632 57.6501 35.5632H54.0874V15.6967Z" fill="white"/>
<path d="M64.3389 34.9317C63.9402 34.6532 63.5034 34.1798 63.5034 33.5863L63.5476 30.6171C65.2064 31.4481 67.3446 31.8849 69.4053 31.8849C71.6987 31.8849 72.5692 30.9352 72.5692 29.7481C72.5692 28.5611 72.0929 27.8108 70.5497 27.2553L68.5332 26.5431C65.6067 25.5158 63.6282 23.8524 63.6282 20.4084C63.6282 16.0939 66.6704 14.5507 71.3822 14.5507C73.2419 14.5507 75.024 14.4715 75.8945 14.1169V17.5975C75.8945 18.4299 73.9952 18.6658 71.5815 18.6658C69.4448 18.6658 68.3749 19.1407 68.3749 20.486C68.3749 21.3565 68.7311 22.0292 70.116 22.504L72.0944 23.1782C75.024 24.1674 77.319 25.9465 77.319 29.5473C77.319 33.6244 74.9829 35.9985 69.1694 35.9985C67.5836 35.9985 65.3692 35.5632 64.3405 34.9301" fill="white"/>
</g>
<defs>
<clipPath id="clip0_20_1104">
<rect width="78.3" height="36" fill="white"/>
</clipPath>
</defs>
</svg>
