<svg width="100" height="100" viewBox="0 0 100 100" fill="none" xmlns="http://www.w3.org/2000/svg">
<g clip-path="url(#clip0_20_2665)">
<path d="M91.5953 50.6457L100 59.7512H80.435L42.0583 19.6075C46.2457 8.16689 57.2333 0 70.1231 0C86.6221 0 100 13.3754 100 29.8769C100 37.9486 96.7988 45.2696 91.5953 50.6457Z" fill="black"/>
<path d="M80.435 59.7813C80.435 81.9918 62.4293 99.9975 40.2188 99.9975H0L11.313 87.7409C4.30996 80.5051 0 70.6488 0 59.7813C0 36.7923 19.2947 18.4737 42.0584 19.6076C63.4004 20.5687 80.435 38.1739 80.435 59.7813Z" fill="white"/>
<path d="M59.0108 63.7124C61.2331 62.8033 62.2976 60.2647 61.3884 58.0425C60.4793 55.8202 57.9408 54.7557 55.7185 55.6649C53.4962 56.574 52.4317 59.1125 53.3409 61.3348C54.25 63.5571 56.7886 64.6216 59.0108 63.7124Z" fill="black"/>
<path d="M40.3014 64.0361C42.7024 64.0361 44.6489 62.0896 44.6489 59.6886C44.6489 57.2875 42.7024 55.3411 40.3014 55.3411C37.9003 55.3411 35.9539 57.2875 35.9539 59.6886C35.9539 62.0896 37.9003 64.0361 40.3014 64.0361Z" fill="black"/>
<path d="M23.2392 64.0361C25.6403 64.0361 27.5867 62.0896 27.5867 59.6886C27.5867 57.2875 25.6403 55.3411 23.2392 55.3411C20.8382 55.3411 18.8917 57.2875 18.8917 59.6886C18.8917 62.0896 20.8382 64.0361 23.2392 64.0361Z" fill="black"/>
</g>
<defs>
<clipPath id="clip0_20_2665">
<rect width="100" height="100" fill="white"/>
</clipPath>
</defs>
</svg>
