<svg width="98" height="45" viewBox="0 0 98 45" fill="none" xmlns="http://www.w3.org/2000/svg">
<g opacity="0.8" clip-path="url(#clip0_20_3139)">
<path d="M17.423 26.5168L23.0097 19.6531H16.4687C14.0553 19.6531 11.6782 20.2029 9.95817 21.7191L9.45912 22.324V0H2.82859C1.27049 0 0 1.26886 0 2.82498V44.4845H6.64195C8.19625 44.4845 9.46102 43.2137 9.46102 41.65V30.5688L14.8439 37.1623L19.4173 42.7838C20.3411 43.9385 21.5487 44.4807 22.7964 44.4807H32.0555L26.0669 37.1395L17.4249 26.5149L17.423 26.5168ZM43.9184 34.0748V19.6531H34.4479V35.8535C34.4479 40.9651 37.9736 44.4845 43.0956 44.4845H50.3813C51.9375 44.4845 53.2156 43.2137 53.2156 41.65V36.6202H46.4575C45.0575 36.6202 43.9184 35.4769 43.9184 34.0729M54.7947 14.5644V8.29043L54.2061 8.90298C54.189 8.92771 52.4099 10.733 47.3013 10.733H43.9184V0H37.2765C35.7203 0 34.4479 1.26886 34.4479 2.82308V10.733H23.1678C19.3601 10.733 17.5658 12.2854 16.1963 13.9518L10.6553 20.7755C10.6553 20.7755 13.2725 18.2987 17.1182 18.2987H47.3032C50.6099 18.2987 52.8728 17.6519 54.0385 16.3792C54.8728 15.468 54.7947 14.5701 54.7947 14.5625" fill="#CCCCCC"/>
<path d="M67.6481 10.3734C67.6481 9.53255 68.0424 9.0874 68.7872 9.0874H73.5872V13.7367C73.5872 14.5776 73.0939 14.9752 72.3491 14.9752H67.6481V10.3753V10.3734ZM67.6958 19.6207C67.6958 18.7799 68.0424 18.1863 68.932 18.1863H73.5396V43.0176C73.5396 44.0088 73.0444 44.4539 72.1548 44.4539H67.6958V19.6207Z" fill="#CCCCCC"/>
<path d="M80.5263 43.6646C80.0273 43.3165 79.4806 42.7249 79.4806 41.983L79.5358 38.2715C81.612 39.3102 84.2882 39.8561 86.8673 39.8561C89.7378 39.8561 90.8273 38.6691 90.8273 37.1852C90.8273 35.7014 90.2312 34.7636 88.2997 34.0692L85.7759 33.1789C82.113 31.8948 79.6368 29.8155 79.6368 25.5105C79.6368 20.1174 83.4444 18.1884 89.3416 18.1884C91.6693 18.1884 93.8997 18.0895 94.9893 17.6462V21.9969C94.9893 23.0375 92.6121 23.3324 89.5911 23.3324C86.9168 23.3324 85.5778 23.9259 85.5778 25.6076C85.5778 26.6957 86.0235 27.5365 87.7568 28.1301L90.2331 28.9728C93.8997 30.2093 96.7721 32.4332 96.7721 36.9341C96.7721 42.0305 93.8483 44.9982 86.5721 44.9982C84.5873 44.9982 81.8158 44.4541 80.5282 43.6627" fill="#CCCCCC"/>
</g>
<defs>
<clipPath id="clip0_20_3139">
<rect width="98" height="45" fill="white"/>
</clipPath>
</defs>
</svg>
