<svg width="100" height="100" viewBox="0 0 100 100" fill="none" xmlns="http://www.w3.org/2000/svg">
<g clip-path="url(#clip0_20_2555)">
<path d="M71.8393 66.0378C87.1438 69.949 98.6503 83.3507 99.7202 99.6032H84.9206C84.9206 86.6578 79.9613 74.8706 71.8393 66.0378ZM61.806 59.5085C69.9047 52.2431 75 41.6968 75 29.9604C75 22.9299 73.1716 16.3265 69.9648 10.5996C81.3259 12.867 89.8809 22.8902 89.8809 34.9207C89.8809 48.6236 78.7822 59.7223 65.0793 59.7223C63.9697 59.7223 62.877 59.6494 61.806 59.5085Z" fill="white"/>
<path d="M40.0794 59.9205C18.1633 59.9205 0.396851 77.6868 0.396851 99.603H79.7619C79.7619 77.6868 61.9956 59.9205 40.0794 59.9205Z" fill="#ED1C24"/>
<path d="M10.3175 29.9601C10.3175 46.4036 23.6359 59.7221 40.0794 59.7221C56.5228 59.7221 69.8413 46.4036 69.8413 29.9601C69.8413 13.5167 56.5228 0.198242 40.0794 0.198242C23.6359 0.198242 10.3175 13.5167 10.3175 29.9601Z" fill="#ED1C24"/>
</g>
<defs>
<clipPath id="clip0_20_2555">
<rect width="100" height="100" fill="white"/>
</clipPath>
</defs>
</svg>
