<svg class="svg-icon1" xmlns="http://www.w3.org/2000/svg" viewBox="0 0 73.92 72.99" fill="none">
                                <path d="M54.11,51.72c.45,1.2.55,2.49.55,3.82,0,3.88-.01,7.75,0,11.63,0,1.5.1,2.99.16,4.49" stroke="#fff" stroke-linecap="round" stroke-linejoin="round" stroke-width="2"></path>
                                <path d="M44.36,27.66c1.5,3.18,2.29,7.32,3.48,10.6,1.37,3.81,2.65,7.66,4.83,11.13l.31.39c.52.61.89,1.25,1.14,1.93" stroke="#fff" stroke-linecap="round" stroke-linejoin="round" stroke-width="2"></path>
                                <path d="M26.79,27.66c-.34,3.63-.54,5.97-1.23,8.3-1.55,5.18-3.05,10.35-6.03,14.95-.27.42-.19,1.09-.19,1.64-.01,3.93.01,7.86-.01,11.79-.02,2.44-.1,4.87-.16,7.31" stroke="#fff" stroke-linecap="round" stroke-linejoin="round" stroke-width="2"></path>
                                <path d="M39.56,31.24c1.5,3.39,3.31,7.07,3.75,10.69.48,3.92.32,7.84-1,11.62-.18.53-.13,1.01-.13,1.5-.02,5.54-.01,11.07-.01,16.61" stroke="#fff" stroke-linecap="round" stroke-linejoin="round" stroke-width="2"></path>
                                <path d="M36.16,33.95c.6,2.69,1.3,5.37,1.5,8.14.05.68.03,3.18-.08,4.62" stroke="#fff" stroke-linecap="round" stroke-linejoin="round" stroke-width="2"></path>
                                <path class="hover" d="M35.52,4.42c-.42-.24-.74-.4-1.69-1.03-3.11-2.03-6.4-3.11-9.98-1.79-3.37,1.24-6.47,4.81-6.39,10.09.06,4.55,1.82,8.45,4.85,11.48,2.04,2.04,9.91,8.27,13.22,10.07" stroke="#fff" stroke-linecap="round" stroke-linejoin="round" stroke-width="2"></path>
                                <path class="hover" d="M35.6,33.24c3.3-1.81,11.18-8.04,13.22-10.07,3.03-3.03,4.78-6.93,4.85-11.48.08-5.28-3.02-8.85-6.39-10.09-3.58-1.32-6.94-.34-9.98,1.79-1.01.71-1.22.97-1.56,1.14l-.21-.12" stroke="#fff" stroke-linecap="round" stroke-linejoin="round" stroke-width="2"></path>
                                <path d="M66.84,35.75c-4.23-.71-7.66,1.75-7.99,6.01-.06.75-.16,2.03-.13,2.76" stroke="#fff" stroke-linecap="round" stroke-linejoin="round" stroke-width="2"></path>
                                <path d="M67.5,49.06c1.16-1.28,2.79-2.09,3.67-3.65,2.23-3.96-.15-8.96-4.33-9.67" stroke="#fff" stroke-linecap="round" stroke-linejoin="round" stroke-width="2"></path>
                                <path d="M8.5,36.46c-2.53.04-5.53,2.05-6,4.46-.43,2.2.3,4.85,2.15,6.49.64.57,1.88,1.32,2.68,1.51" stroke="#fff" stroke-linecap="round" stroke-linejoin="round" stroke-width="2"></path>
                                <path d="M15.5,43.25c-.44-1.05-.89-2.1-1.33-3.16-1.03-2.49-3.63-3.66-5.67-3.63" stroke="#fff" stroke-linecap="round" stroke-linejoin="round" stroke-width="2"></path>
                                <path d="M16.12,43.75c-1.97,2.46-5.11,5.28-7.45,5.19-3.99-.16-7.5,4.41-7.5,8.44,0,2.44.02,4.87,0,7.31-.03,2.44-.11,4.87-.16,7.31" stroke="#fff" stroke-linecap="round" stroke-linejoin="round" stroke-width="2"></path>
                                <path d="M23.67,25.11c-.9,3.19-1.29,3.69-1.77,5.37-1.06,3.66-2.62,7.09-4.06,10.61-.27.66-.89,1.62-1.72,2.65" stroke="#fff" stroke-linecap="round" stroke-linejoin="round" stroke-width="2"></path>
                                <path d="M66.33,49.06c2.22.19,6.78,4.18,6.58,6.99-.31,4.24.04,10.35,0,14.61" stroke="#fff" stroke-linecap="round" stroke-linejoin="round" stroke-width="2"></path>
                                <path d="M47.68,25.25c.8,1.07,1.76,2.44,2.49,3.76.23.41.41.84.57,1.28,1.46,3.93,2.85,7.88,5.08,11.47.48.77.94,1.48,1.83,1.84.34.14.65.39.86.8,1.62,3.16,4.46,4.37,7.81,4.66" stroke="#fff" stroke-linecap="round" stroke-linejoin="round" stroke-width="2"></path>
                                <path d="M26.17,71.65c0-3.99,0-7.97,0-11.96,0-1.35.44-2.42,1.49-3.34,1.72-1.5,3.44-2.97,5.68-3.64,3.5-1.05,4.62-3.86,4.14-6.81-.14-.85-.42-1.63-1.32-2.46-.82-.76-1.78-1.19-2.99-1.38-3.04-.49-5.76.8-6.66,3.34-1.17,3.3.6,5.75,2.65,6.99.54.32,1.55,1.14,2.64.93" stroke="#fff" stroke-linecap="round" stroke-linejoin="round" stroke-width="2"></path>
                                <path d="M67.33,55.71c.36,4.98.08,9.97.17,14.95" stroke="#fff" stroke-linecap="round" stroke-linejoin="round" stroke-width="2"></path>
                                <path d="M31.71,14.94l-.13.15v-5.64h-1.67c-.39,0-.71.32-.71.71v10.52h1.68c.39,0,.71-.32.71-.72v-2.8M31.58,17.17l1.36,1.67,1.15,1.42c.23.29.54.43.85.43h2.34l-1.51-1.85-2.18-2.68h0s1.41-1.73,1.41-1.73h-1.65c-.61,0-1.21.14-1.64.52M37.89,14.42v4.09c0,1.29.89,2.18,2.18,2.18h1.84c.39,0,.72-.32.72-.72v-1.27h-1.71c-.35,0-.64-.29-.64-.64M40.27,18.06v-3.64h-2.39M37.89,12.16h-2.85c-.96,0-1.41.39-1.76.81l-1.4,1.72s.66-.63,1.63-.63h7.62c.83,0,1.41-.16,1.7-.48.21-.23.19-.46.19-.46M43.02,13.13v-1.58l-.15.15s-.45.46-1.74.46h-.85v-2.71h-1.68c-.39,0-.71.32-.71.71v2" stroke-width="2" fill="#fff"></path>
                            </svg>