<svg class="svg-icon2" xmlns="http://www.w3.org/2000/svg" viewBox="0 0 74.29 72.89" fill="none">
                                <path d="M6.16,48.49c-1.52-.14-3.1-.67-4.32.82-.57.69-.86,1.41-.84,2.33.05,2.05.01,4.09.02,6.14,0,2.03,1,3.29,2.99,3.44,1.11.09,1.39.62,1.68,1.53,1.4,4.4,4.44,7.22,8.78,8.6,1.2.38,2.53.5,3.81.51,8.74.04,17.48.04,26.22.02,5.8-.01,10.83-3.63,12.45-8.79.33-1.05.61-1.88,2.15-1.91,1.75-.03,2.65-1.5,2.66-3.4,0-1.71.03-3.15.03-5.14,0-3.76-1.95-4.85-5-4.15" stroke="#fff" stroke-linecap="round" stroke-linejoin="round" stroke-width="2"></path>
                                <path d="M56.89,54.63c-.02-3.16.07-6.27-1.79-9.15-4.32-6.68-10.19-10.59-18.28-10.75-1.72-.03-3.44-.03-5.15-.03h-.26c-1.72,0-3.44,0-5.15.03-8.09.16-13.96,4.07-18.28,10.75-1.86,2.88-1.77,5.99-1.79,9.15" stroke="#fff" stroke-linecap="round" stroke-linejoin="round" stroke-width="2"></path>
                                <path d="M23.42,43.68c-4.29.5-7.35,3.25-9.15,7.29-.58,1.3-.98,2.58-.97,3.99,0,1.49,0,2.99,0,4.48,0,2.13,1.4,3.7,3.48,3.81,7.96.4,15.93.08,23.89.17,1.77.02,3.54.06,5.31-.14,2-.23,3.52-1.69,3.47-3.67-.06-2.32.27-4.65-.3-6.97-1.26-5.14-6.33-9.06-11.47-8.97-4.7.08-9.4.02-14.1.02-.04,0-.12,0-.17,0Z" stroke="#fff" stroke-linecap="round" stroke-linejoin="round" stroke-width="2"></path>
                                <circle cx="22.93" cy="51.86" r=".38" fill="#fff" stroke="#fff" stroke-linecap="round" stroke-linejoin="round" stroke-width="2"></circle>
                                <circle cx="39.27" cy="51.86" r=".38" fill="#fff" stroke="#fff" stroke-linecap="round" stroke-linejoin="round" stroke-width="2"></circle>
                                <path d="M34.49,13.39c-.76-10.3,12.7-13.99,23.24-11.77,10.53,2.22,17.33,10.84,15.17,19.21-.64,2.49-2.07,4.81-4.1,6.69l-9.74,9.29c-.12.42-1.05-3.3-1.05-3.3-.29-1.32-.38-1.14-1.05-1.08-1.11.1-2.69-.43-3.83-.5" stroke="#fff" stroke-linecap="round" stroke-linejoin="round" stroke-width="2"></path>
                                <polyline class="hover" points="19.56 29.62 19.56 28.01 16.05 19.95 14.31 19.95 11.52 28.01 11.52 29.62" stroke="#fff" stroke-linejoin="round" stroke-width="2.5"></polyline>
                                <polyline points="23.72 19.95 23.72 24.17 23.72 28.39" stroke="#fff" stroke-linejoin="round" stroke-width="2.5" stroke-linecap="square"></polyline>
                                <path d="M36.76,25.89c0,1.9-1.55,2.81-3.48,2.81-1.38,0-4.4-.31-4.54-4.11-.1-2.69.45-3.62.83-4.08.85-1.02,2.14-1.29,3.51-1.29,1.93,0,3.48.91,3.48,2.81" stroke="#fff" stroke-linejoin="round" stroke-width="2.5"></path>
                                <path class="hover" d="M49.8,25.89c0,1.9-1.55,2.81-3.48,2.81-1.38,0-4.4-.31-4.54-4.11-.1-2.69.45-3.62.83-4.08.85-1.02,2.14-1.29,3.51-1.29,1.93,0,3.48.91,3.48,2.81" stroke="#fff" stroke-linejoin="round" stroke-width="2.5"></path>
                                <line class="hover" x1="23.72" y1="19.95" x2="23.72" y2="28.39" stroke="#fff" stroke-linejoin="round" stroke-linecap="square" stroke-width="2.5"></line>
                                <path class="hover" d="M29.57,20.52c.85-1.02,2.14-1.29,3.51-1.29,1.93,0,3.48.91,3.48,2.81" stroke="#fff" stroke-linejoin="round" stroke-width="2.5"></path>
                                <path class="hover" d="M29.57,20.52c-.38.46-.94,1.39-.83,4.08.15,3.8,3.17,4.11,4.54,4.11,1.93,0,3.48-.91,3.48-2.81" stroke="#fff" stroke-linejoin="round" stroke-width="2.5"></path>
                                <path class="hover" d="M42.61,20.52c.85-1.02,2.14-1.29,3.51-1.29,1.93,0,3.48.91,3.48,2.81" stroke="#fff" stroke-linejoin="round" stroke-width="2.5"></path>
                                <path class="hover" d="M42.61,20.52c-.38.46-.94,1.39-.83,4.08.15,3.8,3.17,4.11,4.54,4.11,1.93,0,3.48-.91,3.48-2.81" stroke="#fff" stroke-linejoin="round" stroke-width="2.5"></path>
                                <line class="hover" x1="12.27" y1="25.74" x2="18.34" y2="25.59" stroke="#fff" stroke-linejoin="round" stroke-width="2.5"></line>
                            </svg>