<svg class="svg-icon5" xmlns="http://www.w3.org/2000/svg" viewBox="0 0 65.2 75.73" fill="none">
                                <path class="hover" d="M25.75,11.35c.06-3.62-1.33-6.59-4.33-8.59-6.02-4.02-13.49-.73-15.28,5.73-.24.85-.61,1.73-.41,2.67" stroke="#fff" stroke-linecap="round" stroke-linejoin="round" stroke-width="2"></path>
                                <path class="hover" d="M22.29,11.55c.04-2.44-.9-4.44-2.91-5.78-4.05-2.71-9.08-.49-10.28,3.85-.16.57-.41,1.17-.27,1.8" stroke="#fff" stroke-linecap="round" stroke-linejoin="round" stroke-width="2"></path>
                                <line x1="1" y1="74.73" x2="64.2" y2="74.73" stroke="#fff" stroke-linecap="round" stroke-linejoin="round" stroke-width="2"></line>
                                <line x1="47.65" y1="73.97" x2="47.65" y2="48.85" stroke="#fff" stroke-linejoin="round" stroke-width="2"></line>
                                <path d="M13.86,11.01v7.04" stroke="#fff" stroke-linecap="round" stroke-linejoin="round" stroke-width="2"></path>
                                <path d="M17.95,11.01v7.04" stroke="#fff" stroke-linecap="round" stroke-linejoin="round" stroke-width="2"></path>
                                <line x1="44.82" y1="59.39" x2="50.48" y2="59.39" stroke="#fff" stroke-linecap="round" stroke-linejoin="round" stroke-width="2"></line>
                                <path class="cls-1" d="M30.81,27.03h2.23c1.79,0,3.24-1.45,3.24-3.24,0,1.79,1.45,3.24,3.24,3.24h2.23c1.79,0,3.24-1.45,3.24-3.24,0,1.79,1.45,3.24,3.24,3.24h2.23c1.79,0,3.24-1.45,3.24-3.24,0,1.79,1.45,3.24,3.24,3.24h2.23c1.79,0,3.24-1.45,3.24-3.24v-.96c0-2.1-1.71-3.81-3.81-3.81h-4.9s-8.71,0-8.71,0h-10.26s-6.71,0-6.71,0H5.67c-2.09,0-3.78,1.69-3.78,3.78v.99c0,1.79,1.45,3.24,3.24,3.24h2.23c1.79,0,3.24-1.45,3.24-3.24,0,1.79,1.45,3.24,3.24,3.24h2.23c1.79,0,3.24-1.45,3.24-3.24,0,1.79,1.45,3.24,3.24,3.24h2.23c1.79,0,3.24-1.45,3.24-3.24,0,1.79,1.45,3.24,3.24,3.24h2.23" stroke="#fff" stroke-linecap="round" stroke-linejoin="round" stroke-width="2"></path>
                                <path d="M14.81,39.09l-.14.17v-6.38h-1.89c-.44,0-.81.36-.81.81v11.91h1.9c.44,0,.8-.36.8-.81v-3.17M14.66,41.61l1.54,1.88,1.31,1.61c.26.33.61.49.96.49h2.64l-1.71-2.1-2.47-3.04h0s1.59-1.96,1.59-1.96h-1.87c-.69,0-1.37.16-1.86.59M21.8,38.49v4.63c0,1.46,1.01,2.47,2.47,2.47h2.08c.44,0,.81-.36.81-.81v-1.44h-1.93c-.4,0-.72-.33-.72-.73M24.5,42.62v-4.12h-2.7M21.8,35.94h-3.22c-1.09,0-1.6.44-1.99.92l-1.58,1.95s.75-.71,1.84-.71h8.62c.94,0,1.59-.18,1.92-.55.24-.26.22-.52.22-.52M27.61,37.04v-1.79l-.17.18s-.51.52-1.97.52h-.97v-3.07h-1.9c-.44,0-.81.36-.81.81v2.26" stroke-width="0" fill="#fff"></path>
                                <line x1="4.75" y1="74.16" x2="5.13" y2="27.03" stroke="#fff" stroke-linecap="round" stroke-linejoin="round" stroke-width="2"></line>
                                <line x1="60.37" y1="74.16" x2="60" y2="27.03" stroke="#fff" stroke-linecap="round" stroke-linejoin="round" stroke-width="2"></line>
                                <polyline points="60 48.85 35.07 48.85 35.07 74.1" stroke="#fff" stroke-linejoin="round" stroke-width="2"></polyline>
                            </svg>