<svg class="svg-icon6" xmlns="http://www.w3.org/2000/svg" viewBox="0 0 65.51 75.81" fill="none">
                                <path d="M42.3,1c3.14,0,5.69,2.55,5.69,5.69s-2.55,5.69-5.69,5.69" stroke="#fff" stroke-linecap="round" stroke-linejoin="round" stroke-width="2"></path>
                                <path d="M42.3,12.38c-3.14,0-5.69-2.55-5.69-5.69s2.55-5.69,5.69-5.69" stroke="#fff" stroke-linecap="round" stroke-linejoin="round" stroke-width="2"></path>
                                <path d="M1.61,27.28c-.22-.61-.35-1.27-.35-1.96,0-3.14,2.55-5.69,5.69-5.69" stroke="#fff" stroke-linecap="round" stroke-linejoin="round" stroke-width="2"></path>
                                <path d="M6.95,19.63c3.14,0,5.69,2.55,5.69,5.69s-2.55,5.69-5.69,5.69c-2.45,0-4.54-1.55-5.34-3.73" stroke="#fff" stroke-linecap="round" stroke-linejoin="round" stroke-width="2"></path>
                                <path d="M27.4,30.29c-.82.46-1.77.72-2.78.72-3.14,0-5.69-2.55-5.69-5.69s2.55-5.69,5.69-5.69" stroke="#fff" stroke-linecap="round" stroke-linejoin="round" stroke-width="2"></path>
                                <path d="M24.63,19.63c3.14,0,5.69,2.55,5.69,5.69,0,2.13-1.17,3.99-2.91,4.97" stroke="#fff" stroke-linecap="round" stroke-linejoin="round" stroke-width="2"></path>
                                <path d="M36.96,27.28c-.22-.61-.35-1.27-.35-1.96,0-3.14,2.55-5.69,5.69-5.69" stroke="#fff" stroke-linecap="round" stroke-linejoin="round" stroke-width="2"></path>
                                <path d="M42.3,19.63c3.14,0,5.69,2.55,5.69,5.69s-2.55,5.69-5.69,5.69c-2.45,0-4.54-1.55-5.34-3.73" stroke="#fff" stroke-linecap="round" stroke-linejoin="round" stroke-width="2"></path>
                                <path d="M6.95,38.26c3.14,0,5.69,2.55,5.69,5.69s-2.55,5.69-5.69,5.69c-2.61,0-4.81-1.76-5.48-4.16" stroke="#fff" stroke-linecap="round" stroke-linejoin="round" stroke-width="2"></path>
                                <path d="M1.47,45.48c-.14-.49-.21-1-.21-1.53,0-3.14,2.55-5.69,5.69-5.69" stroke="#fff" stroke-linecap="round" stroke-linejoin="round" stroke-width="2"></path>
                                <path d="M30.32,43.95c0,3.14-2.55,5.69-5.69,5.69s-5.69-2.55-5.69-5.69,2.55-5.69,5.69-5.69,5.69,2.55,5.69,5.69" stroke="#fff" stroke-linecap="round" stroke-linejoin="round" stroke-width="2"></path>
                                <path d="M44.68,48.22c-.2.37-.45-.71-.41-4.81.02-2.59.03.27,0-2.32-.02-1.22-.78-2.94-2.87-3.15-2.02-.2-3.71,1.09-3.7,2.68.05,6.09-.03,6.73-.06,12.83,0,.71-.11,1.15-.92,1.55-2.67,1.3-3.06,3.3-2.44,6.14.46,2.11,1.79,3.75,3.16,5.36,1.29,1.51,2.78,1.87,3.6,3.76.27.62.46,1.22.45,1.88" stroke="#fff" stroke-linecap="round" stroke-linejoin="round" stroke-width="2"></path>
                                <path d="M56.28,71.48c-.04-.82.32-1.5.75-2.16,1.11-1.72,2.42-2.32,3.01-4.34.43-1.47,1.02-5.47.92-7.63-.05-1.16-.17-2.31-.21-3.47-.04-1.27-1.23-2.2-2.51-2.27-.88-.04-1.7.2-2.53.39" stroke="#fff" stroke-linecap="round" stroke-linejoin="round" stroke-width="2"></path>
                                <path d="M55.29,54.44c.05-.76.32-1.57.25-2.24-.11-1.08-.43-2.31-1.44-2.99-.91-.61-1.99-.53-2.98-.1-.66.51-1.13.74-1.26,1.97-.08.72-.04.99-.05,1.49" stroke="#fff" stroke-linecap="round" stroke-linejoin="round" stroke-width="2"></path>
                                <path d="M49.99,49.66c-.7-.61-1.23-1.36-2.24-1.62-1.86-.49-3.42.49-3.47,2.37-.02,1,.05,2,.08,3" stroke="#fff" stroke-linecap="round" stroke-linejoin="round" stroke-width="2"></path>
                                <path class="hover" d="M1,4.47s1.85-.73,2.73-3.17h1.66v11.61" stroke="#fff" stroke-linecap="round" stroke-linejoin="round" stroke-width="2"></path>
                                <path class="hover" d="M11.67,4.47s1.85-.73,2.73-3.17h1.66v11.61" stroke="#fff" stroke-linecap="round" stroke-linejoin="round" stroke-width="2"></path>
                                <polyline class="hover" points="31.15 9.99 29.65 9.99 22.35 9.99 22.35 8.26 27.46 1.24 29.55 1.24 29.68 12.96" stroke="#fff" stroke-linecap="round" stroke-linejoin="round" stroke-width="2"></polyline>
                            </svg>