<svg width="79" height="36" viewBox="0 0 79 36" fill="none" xmlns="http://www.w3.org/2000/svg">
<g clip-path="url(#clip0_149_4119)">
<mask id="mask0_149_4119" style="mask-type:luminance" maskUnits="userSpaceOnUse" x="0" y="0" width="26" height="36">
<path d="M2.27767 0.0406494C1.02117 0.0406494 0 1.06882 0 2.32672V35.916H5.34817C6.60467 35.916 7.62444 34.8948 7.62444 33.6355V24.6985L11.9556 30.0159L15.6383 34.5488C16.3821 35.4803 17.3584 35.9132 18.3628 35.9132H25.8163L20.9963 29.9921L14.0386 21.4249L24.1494 8.97481H18.6275C16.151 8.97481 14.4532 9.73123 12.9488 11.499L7.62444 18.0505V0.0406494H2.27767Z" fill="white"/>
</mask>
<g mask="url(#mask0_149_4119)">
<path d="M25.8177 0.0422363H0V35.9162H25.8177V0.0422363Z" fill="black"/>
</g>
<path d="M30.0299 0.0406494C28.7706 0.0406494 27.7466 1.06882 27.7466 2.31972V28.9583C27.7466 33.0808 30.5874 35.9174 34.7127 35.9174H40.5833C41.8398 35.9174 42.8652 34.899 42.8652 33.6397V29.5789H37.4204C36.2941 29.5789 35.378 28.6599 35.378 27.5323V0.0406494H30.0313H30.0299Z" fill="url(#paint0_linear_149_4119)"/>
<mask id="mask1_149_4119" style="mask-type:luminance" maskUnits="userSpaceOnUse" x="27" y="0" width="16" height="36">
<path d="M30.0299 0.0406494C28.7706 0.0406494 27.7466 1.06882 27.7466 2.31972V28.9583C27.7466 33.0808 30.5874 35.9174 34.7127 35.9174H40.5833C41.8398 35.9174 42.8652 34.899 42.8652 33.6397V29.5789H37.4204C36.2941 29.5789 35.378 28.6599 35.378 27.5323V0.0406494H30.0313H30.0299Z" fill="white"/>
</mask>
<g mask="url(#mask1_149_4119)">
<path d="M42.8651 0.0422363H27.7451V35.9162H42.8651V0.0422363Z" fill="black"/>
</g>
<path d="M8.35156 17.1203L8.35436 17.1287L8.37818 17.1021C8.36977 17.1077 8.35997 17.1147 8.35156 17.1217M37.9318 9.86848C33.6174 9.86848 17.9693 9.87828 17.9693 9.87828C15.2658 9.87828 13.4798 10.835 12.2219 12.3647L8.37818 17.1021C9.77475 16.0515 11.6938 15.4212 13.6507 15.4212H37.9318C41.0121 15.4212 43.9678 14.4784 43.9678 12.0579C43.9678 9.63735 43.6918 8.2926 43.6918 8.2926C43.6918 8.2926 42.2462 9.86708 37.9318 9.86708" fill="#E60012"/>
<mask id="mask2_149_4119" style="mask-type:luminance" maskUnits="userSpaceOnUse" x="8" y="8" width="36" height="10">
<path d="M8.35156 17.1203L8.35436 17.1287L8.37818 17.1021C8.36977 17.1077 8.35997 17.1147 8.35156 17.1217M37.9318 9.86848C33.6174 9.86848 17.9693 9.87828 17.9693 9.87828C15.2658 9.87828 13.4798 10.835 12.2219 12.3647L8.37818 17.1021C9.77475 16.0515 11.6938 15.4212 13.6507 15.4212H37.9318C41.0121 15.4212 43.9678 14.4784 43.9678 12.0579C43.9678 9.63735 43.6918 8.2926 43.6918 8.2926C43.6918 8.2926 42.2462 9.86708 37.9318 9.86708" fill="white"/>
</mask>
<g mask="url(#mask2_149_4119)">
<path d="M41.6833 -0.432131L6.1875 8.86017L10.6361 25.8533L46.1319 16.561L41.6833 -0.432131Z" fill="#E60012"/>
</g>
<mask id="mask3_149_4119" style="mask-type:luminance" maskUnits="userSpaceOnUse" x="8" y="6" width="36" height="12">
<path d="M43.4926 7.48715C43.4786 7.50115 42.04 8.95796 37.9316 8.95796H18.493C15.4183 8.95796 13.9754 10.2103 12.8772 11.5648L8.41016 17.0657C8.41016 17.0657 10.5197 15.0626 13.6168 15.0626H37.933C40.5958 15.0626 42.4182 14.5443 43.3568 13.5147C44.0277 12.7807 43.9689 12.0579 43.9647 12.0579V6.99127L43.494 7.48715H43.4926Z" fill="white"/>
</mask>
<g mask="url(#mask3_149_4119)">
<path d="M23.1254 -10.5479L48.988 11.153L29.3098 34.6034L3.44727 12.9026L23.1254 -10.5479Z" fill="#E60012" stroke="#E60012"/>
</g>
<path d="M54.1821 8.00545C54.1821 7.32747 54.4987 6.96887 55.0996 6.96887H58.9644V10.716C58.9644 11.3939 58.568 11.7147 57.9684 11.7147H54.1835V8.00685L54.1821 8.00545ZM54.22 15.4604C54.22 14.7824 54.4987 14.3047 55.2159 14.3047H58.9252V34.3205C58.9252 35.1189 58.5259 35.4775 57.8101 35.4775H54.22V15.4604Z" fill="#E60012"/>
<path d="M64.5494 34.8388C64.1474 34.5586 63.7075 34.081 63.7075 33.4828L63.7523 30.4908C65.4235 31.3284 67.5779 31.7683 69.6538 31.7683C71.9651 31.7683 72.842 30.8101 72.842 29.6153C72.842 28.4204 72.3615 27.6626 70.8067 27.1023L68.7741 26.3851C65.8255 25.3499 63.8308 23.6746 63.8308 20.2049C63.8308 15.8582 66.8957 14.3034 71.6429 14.3034C73.5172 14.3034 75.313 14.2235 76.1885 13.8663V17.3739C76.1885 18.2129 74.2736 18.4511 71.8432 18.4511C69.6902 18.4511 68.6116 18.9301 68.6116 20.2847C68.6116 21.1616 68.9702 21.8396 70.3654 22.3186L72.3587 22.998C75.3116 23.9954 77.6229 25.787 77.6229 29.415C77.6229 33.5235 75.2681 35.916 69.4115 35.916C67.8132 35.916 65.5818 35.4775 64.5466 34.8388" fill="#E60012"/>
</g>
<defs>
<linearGradient id="paint0_linear_149_4119" x1="27.7466" y1="17.9776" x2="42.8652" y2="17.9776" gradientUnits="userSpaceOnUse">
<stop stop-color="#444242"/>
<stop offset="1" stop-color="#262A2A"/>
</linearGradient>
<clipPath id="clip0_149_4119">
<rect width="78.3" height="36" fill="white"/>
</clipPath>
</defs>
</svg>
